<svg width="75" height="75" viewBox="0 0 75 75" fill="none" xmlns="http://www.w3.org/2000/svg">
<path d="M68.5938 27.2531L68.5156 26.7281L68.4344 26.7469C67.8791 24.1501 66.5999 21.7636 64.7448 19.8636C62.8897 17.9635 60.5346 16.6276 57.9519 16.0103C55.3691 15.3929 52.6644 15.5195 50.1506 16.3753C47.6369 17.2312 45.4168 18.7812 43.7472 20.8462C42.0777 22.9112 41.027 25.4067 40.7166 28.044C40.4063 30.6813 40.849 33.3525 41.9935 35.7487C43.1381 38.1448 44.9377 40.1679 47.1841 41.5839C49.4306 42.9999 52.032 43.7509 54.6875 43.75C55.3844 43.75 56.0531 43.6438 56.7187 43.5469C56.5031 44.2719 56.2812 45.0094 55.925 45.6719C55.5687 46.6344 55.0125 47.4687 54.4594 48.3094C53.9969 49.2188 53.1812 49.8344 52.5812 50.6125C51.9531 51.3687 51.0969 51.8719 50.4187 52.5C49.7531 53.1562 48.8812 53.4844 48.1875 53.9469C47.4625 54.3625 46.8312 54.8219 46.1562 55.0406L44.4719 55.7344L42.9906 56.35L44.5031 62.4094L46.3687 61.9594C46.9656 61.8094 47.6937 61.6344 48.5219 61.425C49.3687 61.2687 50.2719 60.8406 51.2781 60.45C52.2687 60.0031 53.4219 59.7063 54.4906 58.9906C55.5656 58.3094 56.8062 57.7406 57.9 56.8281C58.9594 55.8875 60.2375 55.0719 61.1812 53.8781C62.2125 52.7594 63.2312 51.5844 64.0219 50.2469C64.9375 48.9719 65.5594 47.5719 66.2156 46.1875C66.8094 44.8031 67.2875 43.3875 67.6781 42.0125C68.4187 39.2563 68.75 36.6375 68.8781 34.3969C68.9844 32.1531 68.9219 30.2875 68.7906 28.9375C68.7467 28.3737 68.681 27.8118 68.5938 27.2531ZM34.2187 27.2531L34.1406 26.7281L34.0594 26.7469C33.5041 24.1501 32.2249 21.7636 30.3698 19.8636C28.5147 17.9635 26.1596 16.6276 23.5768 16.0103C20.9941 15.3929 18.2894 15.5195 15.7756 16.3753C13.2618 17.2312 11.0418 18.7812 9.37222 20.8462C7.70269 22.9112 6.65197 25.4067 6.34162 28.044C6.03127 30.6813 6.47398 33.3525 7.61853 35.7487C8.76308 38.1448 10.5627 40.1679 12.8091 41.5839C15.0556 42.9999 17.657 43.7509 20.3125 43.75C21.0094 43.75 21.6781 43.6438 22.3437 43.5469C22.1281 44.2719 21.9062 45.0094 21.55 45.6719C21.1937 46.6344 20.6375 47.4687 20.0844 48.3094C19.6219 49.2188 18.8062 49.8344 18.2062 50.6125C17.5781 51.3687 16.7219 51.8719 16.0437 52.5C15.3781 53.1562 14.5062 53.4844 13.8125 53.9469C13.0875 54.3625 12.4562 54.8219 11.7812 55.0406L10.0969 55.7344C9.15623 56.1187 8.61873 56.3438 8.61873 56.3438L10.1312 62.4031L11.9969 61.9531C12.5937 61.8031 13.3219 61.6281 14.15 61.4187C14.9969 61.2625 15.9 60.8344 16.9062 60.4437C17.8969 59.9969 19.05 59.7 20.1187 58.9844C21.1937 58.3031 22.4344 57.7344 23.5281 56.8219C24.5875 55.8813 25.8656 55.0656 26.8094 53.8719C27.8406 52.7531 28.8594 51.5781 29.65 50.2406C30.5656 48.9656 31.1875 47.5656 31.8437 46.1812C32.4375 44.7969 32.9156 43.3813 33.3062 42.0063C34.0469 39.25 34.3781 36.6313 34.5062 34.3906C34.6125 32.1469 34.55 30.2813 34.4187 28.9313C34.3721 28.3697 34.3054 27.8099 34.2187 27.2531Z" fill="black"/>
</svg>
