<svg width="33" height="28" viewBox="0 0 33 28" fill="none" xmlns="http://www.w3.org/2000/svg">
<g filter="url(#filter0_d_0_356)">
<path d="M25.8674 5.125C26.8049 4.42188 27.6487 3.57812 28.3049 2.59375C27.4612 2.96875 26.4768 3.25 25.4924 3.34375C26.5237 2.73438 27.2737 1.79688 27.6487 0.625C26.7112 1.1875 25.6331 1.60938 24.5549 1.84375C23.6174 0.859375 22.3518 0.296875 20.9456 0.296875C18.2268 0.296875 16.0237 2.5 16.0237 5.21875C16.0237 5.59375 16.0706 5.96875 16.1643 6.34375C12.0862 6.10938 8.42994 4.14062 5.99244 1.1875C5.57057 1.89062 5.33619 2.73438 5.33619 3.67188C5.33619 5.35938 6.17994 6.85938 7.53932 7.75C6.74244 7.70312 5.94557 7.51562 5.28932 7.14062V7.1875C5.28932 9.57812 6.97682 11.5469 9.22682 12.0156C8.85182 12.1094 8.38307 12.2031 7.96119 12.2031C7.63307 12.2031 7.35182 12.1562 7.02369 12.1094C7.63307 14.0781 9.46119 15.4844 11.6174 15.5312C9.92994 16.8438 7.82057 17.6406 5.52369 17.6406C5.10182 17.6406 4.72682 17.5938 4.35182 17.5469C6.50807 18.9531 9.08619 19.75 11.8987 19.75C20.9456 19.75 25.8674 12.2969 25.8674 5.78125C25.8674 5.54688 25.8674 5.35938 25.8674 5.125Z" fill="black"/>
</g>
<defs>
<filter id="filter0_d_0_356" x="0.351807" y="0.296875" width="31.9531" height="27.4531" filterUnits="userSpaceOnUse" color-interpolation-filters="sRGB">
<feFlood flood-opacity="0" result="BackgroundImageFix"/>
<feColorMatrix in="SourceAlpha" type="matrix" values="0 0 0 0 0 0 0 0 0 0 0 0 0 0 0 0 0 0 127 0" result="hardAlpha"/>
<feOffset dy="4"/>
<feGaussianBlur stdDeviation="2"/>
<feComposite in2="hardAlpha" operator="out"/>
<feColorMatrix type="matrix" values="0 0 0 0 0 0 0 0 0 0 0 0 0 0 0 0 0 0 0.25 0"/>
<feBlend mode="normal" in2="BackgroundImageFix" result="effect1_dropShadow_0_356"/>
<feBlend mode="normal" in="SourceGraphic" in2="effect1_dropShadow_0_356" result="shape"/>
</filter>
</defs>
</svg>
