<svg width="30" height="30" viewBox="0 0 30 30" fill="none" xmlns="http://www.w3.org/2000/svg">
<g filter="url(#filter0_d_0_359)">
<path d="M14.5613 5.60938C11.5613 5.60938 9.17066 8.04688 9.17066 11C9.17066 14 11.5613 16.3906 14.5613 16.3906C17.5144 16.3906 19.9519 14 19.9519 11C19.9519 8.04688 17.5144 5.60938 14.5613 5.60938ZM14.5613 14.5156C12.6394 14.5156 11.0457 12.9688 11.0457 11C11.0457 9.07812 12.5925 7.53125 14.5613 7.53125C16.4832 7.53125 18.03 9.07812 18.03 11C18.03 12.9688 16.4832 14.5156 14.5613 14.5156ZM21.405 5.42188C21.405 4.71875 20.8425 4.15625 20.1394 4.15625C19.4363 4.15625 18.8738 4.71875 18.8738 5.42188C18.8738 6.125 19.4363 6.6875 20.1394 6.6875C20.8425 6.6875 21.405 6.125 21.405 5.42188ZM24.9675 6.6875C24.8738 5 24.4988 3.5 23.28 2.28125C22.0613 1.0625 20.5613 0.6875 18.8738 0.59375C17.1394 0.5 11.9363 0.5 10.2019 0.59375C8.51441 0.6875 7.06129 1.0625 5.79566 2.28125C4.57691 3.5 4.20191 5 4.10816 6.6875C4.01441 8.42188 4.01441 13.625 4.10816 15.3594C4.20191 17.0469 4.57691 18.5 5.79566 19.7656C7.06129 20.9844 8.51441 21.3594 10.2019 21.4531C11.9363 21.5469 17.1394 21.5469 18.8738 21.4531C20.5613 21.3594 22.0613 20.9844 23.28 19.7656C24.4988 18.5 24.8738 17.0469 24.9675 15.3594C25.0613 13.625 25.0613 8.42188 24.9675 6.6875ZM22.7175 17.1875C22.3894 18.125 21.6394 18.8281 20.7488 19.2031C19.3425 19.7656 16.0613 19.625 14.5613 19.625C13.0144 19.625 9.73316 19.7656 8.37379 19.2031C7.43629 18.8281 6.73316 18.125 6.35816 17.1875C5.79566 15.8281 5.93629 12.5469 5.93629 11C5.93629 9.5 5.79566 6.21875 6.35816 4.8125C6.73316 3.92188 7.43629 3.21875 8.37379 2.84375C9.73316 2.28125 13.0144 2.42188 14.5613 2.42188C16.0613 2.42188 19.3425 2.28125 20.7488 2.84375C21.6394 3.17188 22.3425 3.92188 22.7175 4.8125C23.28 6.21875 23.1394 9.5 23.1394 11C23.1394 12.5469 23.28 15.8281 22.7175 17.1875Z" fill="black"/>
</g>
<defs>
<filter id="filter0_d_0_359" x="0.0144043" y="0.5" width="29.0469" height="29.0469" filterUnits="userSpaceOnUse" color-interpolation-filters="sRGB">
<feFlood flood-opacity="0" result="BackgroundImageFix"/>
<feColorMatrix in="SourceAlpha" type="matrix" values="0 0 0 0 0 0 0 0 0 0 0 0 0 0 0 0 0 0 127 0" result="hardAlpha"/>
<feOffset dy="4"/>
<feGaussianBlur stdDeviation="2"/>
<feComposite in2="hardAlpha" operator="out"/>
<feColorMatrix type="matrix" values="0 0 0 0 0 0 0 0 0 0 0 0 0 0 0 0 0 0 0.25 0"/>
<feBlend mode="normal" in2="BackgroundImageFix" result="effect1_dropShadow_0_359"/>
<feBlend mode="normal" in="SourceGraphic" in2="effect1_dropShadow_0_359" result="shape"/>
</filter>
</defs>
</svg>
