<svg width="153" height="68" viewBox="0 0 153 68" fill="none" xmlns="http://www.w3.org/2000/svg">
<g filter="url(#filter0_d_85_0)">
<rect x="4" width="145" height="60" fill="#DC6041"/>
<path d="M39.8091 25.732C40.3691 25.732 40.8545 25.802 41.2651 25.942C41.6758 26.0727 42.0305 26.2593 42.3291 26.502C42.9171 26.978 43.2998 27.6453 43.4771 28.504L41.7131 28.826C41.5638 28.35 41.3305 27.9673 41.0131 27.678C40.7051 27.3793 40.3178 27.23 39.8511 27.23C39.2165 27.23 38.7031 27.496 38.3111 28.028C37.8911 28.6067 37.6811 29.4093 37.6811 30.436C37.6811 31.4533 37.8678 32.2513 38.2411 32.83C38.6145 33.3993 39.1231 33.684 39.7671 33.684C40.4111 33.684 40.8965 33.53 41.2231 33.222C41.5498 32.9047 41.7131 32.4987 41.7131 32.004H43.4911C43.4911 33.0213 43.1645 33.81 42.5111 34.37C41.8671 34.9207 40.9805 35.196 39.8511 35.196C38.6471 35.196 37.6905 34.776 36.9811 33.936C36.2625 33.0773 35.9031 31.9107 35.9031 30.436C35.9031 28.9427 36.2718 27.776 37.0091 26.936C37.7185 26.1333 38.6518 25.732 39.8091 25.732ZM48.9062 25.732C49.5128 25.732 50.0682 25.8347 50.5722 26.04C51.0762 26.236 51.5102 26.53 51.8742 26.922C52.6395 27.7433 53.0222 28.9193 53.0222 30.45C53.0222 31.99 52.6395 33.18 51.8742 34.02C51.1462 34.804 50.1522 35.196 48.8922 35.196C47.6415 35.196 46.6522 34.7947 45.9242 33.992C45.1588 33.1613 44.7762 31.9807 44.7762 30.45C44.7762 28.9007 45.1588 27.7153 45.9242 26.894C46.6428 26.1193 47.6368 25.732 48.9062 25.732ZM51.3142 30.478C51.3142 29.4327 51.0948 28.63 50.6562 28.07C50.2268 27.5007 49.6435 27.216 48.9062 27.216C48.1688 27.216 47.5808 27.5007 47.1422 28.07C46.7035 28.63 46.4842 29.4327 46.4842 30.478C46.4842 31.514 46.7035 32.312 47.1422 32.872C47.5808 33.4227 48.1688 33.698 48.9062 33.698C49.6435 33.698 50.2268 33.4227 50.6562 32.872C51.0948 32.312 51.3142 31.514 51.3142 30.478ZM56.7548 25.914L60.7588 32.354V25.914H62.4108V35H60.7308L56.6008 28.336V35H54.9488V25.914H56.7548ZM63.794 25.914H71.074V27.342H68.26V35H66.608V27.342H63.794V25.914ZM73.9342 25.914H76.0062L78.9882 35H77.2382L76.6082 33.04H73.2342L72.5902 35H70.8402L73.9342 25.914ZM73.6542 31.794H76.2022L74.9422 27.888L73.6542 31.794ZM83.8599 25.732C84.4199 25.732 84.9052 25.802 85.3159 25.942C85.7266 26.0727 86.0812 26.2593 86.3799 26.502C86.9679 26.978 87.3506 27.6453 87.5279 28.504L85.7639 28.826C85.6146 28.35 85.3812 27.9673 85.0639 27.678C84.7559 27.3793 84.3686 27.23 83.9019 27.23C83.2672 27.23 82.7539 27.496 82.3619 28.028C81.9419 28.6067 81.7319 29.4093 81.7319 30.436C81.7319 31.4533 81.9186 32.2513 82.2919 32.83C82.6652 33.3993 83.1739 33.684 83.8179 33.684C84.4619 33.684 84.9472 33.53 85.2739 33.222C85.6006 32.9047 85.7639 32.4987 85.7639 32.004H87.5419C87.5419 33.0213 87.2152 33.81 86.5619 34.37C85.9179 34.9207 85.0312 35.196 83.9019 35.196C82.6979 35.196 81.7412 34.776 81.0319 33.936C80.3132 33.0773 79.9539 31.9107 79.9539 30.436C79.9539 28.9427 80.3226 27.776 81.0599 26.936C81.7692 26.1333 82.7026 25.732 83.8599 25.732ZM88.2529 25.914H95.5329V27.342H92.7189V35H91.0669V27.342H88.2529V25.914ZM101.975 25.914V31.57C101.975 32.3167 102.162 32.8533 102.535 33.18C102.918 33.5067 103.408 33.67 104.005 33.67C104.602 33.67 105.088 33.5067 105.461 33.18C105.844 32.8533 106.035 32.3167 106.035 31.57V25.914H107.687V31.57C107.687 32.7273 107.365 33.6233 106.721 34.258C106.077 34.8833 105.172 35.196 104.005 35.196C102.838 35.196 101.933 34.8833 101.289 34.258C100.645 33.6233 100.323 32.7273 100.323 31.57V25.914H101.975ZM114.903 28.42C114.754 27.6267 114.194 27.23 113.223 27.23C112.747 27.23 112.374 27.328 112.103 27.524C111.842 27.7107 111.711 27.9393 111.711 28.21C111.711 28.4807 111.795 28.6953 111.963 28.854C112.14 29.0033 112.411 29.1433 112.775 29.274L114.749 30.044C115.421 30.3053 115.939 30.6367 116.303 31.038C116.667 31.43 116.849 31.9247 116.849 32.522C116.849 33.3433 116.541 33.9967 115.925 34.482C115.309 34.958 114.432 35.196 113.293 35.196C112.285 35.196 111.468 34.9487 110.843 34.454C110.143 33.9127 109.774 33.1473 109.737 32.158H111.375C111.375 32.9047 111.762 33.376 112.537 33.572C112.77 33.6373 113.078 33.67 113.461 33.67C113.844 33.67 114.198 33.5767 114.525 33.39C114.852 33.194 115.015 32.9373 115.015 32.62C115.015 32.2933 114.926 32.046 114.749 31.878C114.572 31.7007 114.282 31.5373 113.881 31.388L112.075 30.674C111.375 30.4033 110.838 30.086 110.465 29.722C110.092 29.358 109.905 28.854 109.905 28.21C109.905 27.454 110.199 26.8567 110.787 26.418C111.384 25.9607 112.192 25.732 113.209 25.732C114.236 25.732 115.024 25.97 115.575 26.446C116.135 26.9127 116.457 27.5707 116.541 28.42H114.903Z" fill="white"/>
<rect x="4.495" y="0.495" width="144.01" height="59.01" stroke="#DC6041" stroke-width="0.99"/>
</g>
<defs>
<filter id="filter0_d_85_0" x="0" y="0" width="153" height="68" filterUnits="userSpaceOnUse" color-interpolation-filters="sRGB">
<feFlood flood-opacity="0" result="BackgroundImageFix"/>
<feColorMatrix in="SourceAlpha" type="matrix" values="0 0 0 0 0 0 0 0 0 0 0 0 0 0 0 0 0 0 127 0" result="hardAlpha"/>
<feOffset dy="4"/>
<feGaussianBlur stdDeviation="2"/>
<feColorMatrix type="matrix" values="0 0 0 0 0 0 0 0 0 0 0 0 0 0 0 0 0 0 0.25 0"/>
<feBlend mode="normal" in2="BackgroundImageFix" result="effect1_dropShadow_85_0"/>
<feBlend mode="normal" in="SourceGraphic" in2="effect1_dropShadow_85_0" result="shape"/>
</filter>
</defs>
</svg>
