<svg width="153" height="68" viewBox="0 0 153 68" fill="none" xmlns="http://www.w3.org/2000/svg">
<g filter="url(#filter0_d_58_105)">
<rect x="4" width="145" height="60" fill="white"/>
<path d="M39.8648 35.196C39.0668 35.196 38.3715 35.007 37.7788 34.629C37.1908 34.2463 36.7335 33.7003 36.4068 32.991C36.0801 32.2817 35.9168 31.43 35.9168 30.436C35.9168 29.4093 36.0848 28.5483 36.4208 27.853C36.7615 27.153 37.2281 26.6257 37.8208 26.271C38.4181 25.9117 39.0995 25.732 39.8648 25.732C40.9241 25.732 41.7501 25.9887 42.3428 26.502C42.9401 27.0153 43.3228 27.6827 43.4908 28.504L41.7268 28.826C41.5821 28.35 41.3511 27.965 41.0338 27.671C40.7165 27.377 40.3268 27.23 39.8648 27.23C39.4588 27.23 39.0925 27.349 38.7658 27.587C38.4391 27.8203 38.1778 28.175 37.9818 28.651C37.7905 29.127 37.6948 29.722 37.6948 30.436C37.6948 31.108 37.7788 31.6867 37.9468 32.172C38.1195 32.6573 38.3668 33.0307 38.6888 33.292C39.0108 33.5533 39.4028 33.684 39.8648 33.684C40.4575 33.684 40.9148 33.5277 41.2368 33.215C41.5635 32.8977 41.7268 32.494 41.7268 32.004H43.4908C43.4908 32.6807 43.3438 33.257 43.0498 33.733C42.7605 34.2043 42.3451 34.566 41.8038 34.818C41.2625 35.07 40.6161 35.196 39.8648 35.196ZM48.9058 35.196C48.0985 35.196 47.3845 35.0187 46.7638 34.664C46.1478 34.3093 45.6648 33.7797 45.3148 33.075C44.9648 32.3703 44.7898 31.4953 44.7898 30.45C44.7898 29.386 44.9648 28.5063 45.3148 27.811C45.6648 27.111 46.1478 26.5907 46.7638 26.25C47.3845 25.9047 48.0985 25.732 48.9058 25.732C49.7178 25.732 50.4342 25.9093 51.0548 26.264C51.6755 26.614 52.1608 27.139 52.5108 27.839C52.8608 28.539 53.0358 29.4093 53.0358 30.45C53.0358 31.5093 52.8608 32.3913 52.5108 33.096C52.1608 33.8007 51.6755 34.328 51.0548 34.678C50.4342 35.0233 49.7178 35.196 48.9058 35.196ZM48.9058 33.698C49.6478 33.698 50.2358 33.418 50.6698 32.858C51.1085 32.298 51.3278 31.4907 51.3278 30.436C51.3278 29.4187 51.1085 28.6277 50.6698 28.063C50.2358 27.4983 49.6478 27.216 48.9058 27.216C48.1778 27.216 47.5945 27.5007 47.1558 28.07C46.7172 28.6347 46.4978 29.428 46.4978 30.45C46.4978 31.5 46.7172 32.305 47.1558 32.865C47.5945 33.4203 48.1778 33.698 48.9058 33.698ZM54.9625 25.914H56.7685L60.8985 32.396H60.7725V25.914H62.4245V35H60.7445L56.3485 28.126H56.6145V35H54.9625V25.914ZM63.8076 27.342V25.914H71.0876V27.342H67.9026L68.2736 26.964V35H66.6216V26.964L66.9926 27.342H63.8076ZM70.8402 35L73.9342 25.914H76.0062L78.9742 35H77.2382L76.6082 33.04H73.2342L72.5902 35H70.8402ZM73.6542 31.794H76.2162L74.9422 27.888L73.6542 31.794ZM83.9019 35.196C83.1039 35.196 82.4086 35.007 81.8159 34.629C81.2279 34.2463 80.7706 33.7003 80.4439 32.991C80.1172 32.2817 79.9539 31.43 79.9539 30.436C79.9539 29.4093 80.1219 28.5483 80.4579 27.853C80.7986 27.153 81.2652 26.6257 81.8579 26.271C82.4552 25.9117 83.1366 25.732 83.9019 25.732C84.9612 25.732 85.7872 25.9887 86.3799 26.502C86.9772 27.0153 87.3599 27.6827 87.5279 28.504L85.7639 28.826C85.6192 28.35 85.3882 27.965 85.0709 27.671C84.7536 27.377 84.3639 27.23 83.9019 27.23C83.4959 27.23 83.1296 27.349 82.8029 27.587C82.4762 27.8203 82.2149 28.175 82.0189 28.651C81.8276 29.127 81.7319 29.722 81.7319 30.436C81.7319 31.108 81.8159 31.6867 81.9839 32.172C82.1566 32.6573 82.4039 33.0307 82.7259 33.292C83.0479 33.5533 83.4399 33.684 83.9019 33.684C84.4946 33.684 84.9519 33.5277 85.2739 33.215C85.6006 32.8977 85.7639 32.494 85.7639 32.004H87.5279C87.5279 32.6807 87.3809 33.257 87.0869 33.733C86.7976 34.2043 86.3822 34.566 85.8409 34.818C85.2996 35.07 84.6532 35.196 83.9019 35.196ZM88.2529 27.342V25.914H95.5329V27.342H92.3479L92.7189 26.964V35H91.0669V26.964L91.4379 27.342H88.2529ZM100.309 25.914H101.961V31.57C101.961 32.3167 102.15 32.8557 102.528 33.187C102.911 33.5183 103.399 33.684 103.991 33.684C104.589 33.684 105.076 33.5183 105.454 33.187C105.832 32.8557 106.021 32.3167 106.021 31.57V25.914H107.673V31.57C107.673 32.3353 107.526 32.9887 107.232 33.53C106.938 34.0713 106.516 34.4843 105.965 34.769C105.419 35.0537 104.761 35.196 103.991 35.196C103.221 35.196 102.561 35.0537 102.01 34.769C101.464 34.4843 101.044 34.0713 100.75 33.53C100.456 32.9887 100.309 32.3353 100.309 31.57V25.914ZM113.279 35.196C112.649 35.196 112.068 35.0863 111.536 34.867C111.009 34.6477 110.58 34.314 110.248 33.866C109.922 33.418 109.747 32.8487 109.723 32.158H111.347C111.347 32.508 111.434 32.795 111.606 33.019C111.779 33.243 112.01 33.411 112.299 33.523C112.593 33.6303 112.915 33.684 113.265 33.684C113.601 33.684 113.9 33.6397 114.161 33.551C114.427 33.4623 114.635 33.3363 114.784 33.173C114.938 33.005 115.015 32.8067 115.015 32.578C115.015 32.2747 114.922 32.0367 114.735 31.864C114.553 31.6913 114.259 31.5327 113.853 31.388L112.061 30.674C111.361 30.3987 110.825 30.079 110.451 29.715C110.078 29.351 109.891 28.8493 109.891 28.21C109.891 27.4727 110.183 26.8753 110.766 26.418C111.35 25.9607 112.164 25.732 113.209 25.732C114.227 25.732 115.013 25.97 115.568 26.446C116.124 26.9173 116.439 27.5753 116.513 28.42H114.889C114.829 28.0607 114.665 27.7737 114.399 27.559C114.133 27.3397 113.737 27.23 113.209 27.23C112.743 27.23 112.374 27.328 112.103 27.524C111.833 27.7153 111.697 27.958 111.697 28.252C111.697 28.504 111.781 28.7047 111.949 28.854C112.122 28.9987 112.388 29.1387 112.747 29.274L114.735 30.044C115.407 30.3053 115.923 30.6343 116.282 31.031C116.642 31.4277 116.821 31.9247 116.821 32.522C116.821 33.068 116.684 33.5417 116.408 33.943C116.133 34.3397 115.732 34.6477 115.204 34.867C114.677 35.0863 114.035 35.196 113.279 35.196Z" fill="#DC6041"/>
<rect x="4.495" y="0.495" width="144.01" height="59.01" stroke="#DC6041" stroke-width="0.99"/>
</g>
<defs>
<filter id="filter0_d_58_105" x="0" y="0" width="153" height="68" filterUnits="userSpaceOnUse" color-interpolation-filters="sRGB">
<feFlood flood-opacity="0" result="BackgroundImageFix"/>
<feColorMatrix in="SourceAlpha" type="matrix" values="0 0 0 0 0 0 0 0 0 0 0 0 0 0 0 0 0 0 127 0" result="hardAlpha"/>
<feOffset dy="4"/>
<feGaussianBlur stdDeviation="2"/>
<feColorMatrix type="matrix" values="0 0 0 0 0 0 0 0 0 0 0 0 0 0 0 0 0 0 0.25 0"/>
<feBlend mode="normal" in2="BackgroundImageFix" result="effect1_dropShadow_58_105"/>
<feBlend mode="normal" in="SourceGraphic" in2="effect1_dropShadow_58_105" result="shape"/>
</filter>
</defs>
</svg>
