<svg width="24" height="24" viewBox="0 0 24 24" fill="none" xmlns="http://www.w3.org/2000/svg">
<path d="M9 14C9.26522 14 9.51957 13.8946 9.70711 13.7071C9.89464 13.5196 10 13.2652 10 13C10 12.7348 9.89464 12.4804 9.70711 12.2929C9.51957 12.1054 9.26522 12 9 12C8.73478 12 8.48043 12.1054 8.29289 12.2929C8.10536 12.4804 8 12.7348 8 13C8 13.2652 8.10536 13.5196 8.29289 13.7071C8.48043 13.8946 8.73478 14 9 14ZM16 13C16 13.2652 15.8946 13.5196 15.7071 13.7071C15.5196 13.8946 15.2652 14 15 14C14.7348 14 14.4804 13.8946 14.2929 13.7071C14.1054 13.5196 14 13.2652 14 13C14 12.7348 14.1054 12.4804 14.2929 12.2929C14.4804 12.1054 14.7348 12 15 12C15.2652 12 15.5196 12.1054 15.7071 12.2929C15.8946 12.4804 16 12.7348 16 13Z" fill="#1698DA"/>
<path fill-rule="evenodd" clip-rule="evenodd" d="M12 22C17.523 22 22 17.523 22 12C22 6.477 17.523 2 12 2C6.477 2 2 6.477 2 12C2 17.523 6.477 22 12 22ZM12 20C13.2563 20.0004 14.495 19.7049 15.6159 19.1375C16.7367 18.57 17.7082 17.7466 18.4516 16.7339C19.1949 15.7211 19.6894 14.5475 19.8948 13.3082C20.1002 12.0688 20.0109 10.7984 19.634 9.6C18.799 9.826 17.921 9.946 17.015 9.946C15.249 9.94665 13.5143 9.47941 11.9875 8.59183C10.4607 7.70424 9.1963 6.428 8.323 4.893C6.72983 5.71636 5.45952 7.05114 4.71597 8.68308C3.97242 10.315 3.79877 12.1495 4.22288 13.8919C4.64699 15.6344 5.64428 17.1839 7.05464 18.2915C8.46501 19.3992 10.2067 20.0009 12 20Z" fill="#1698DA"/>
</svg>
