<svg width="26" height="18" viewBox="0 0 26 18" fill="none" xmlns="http://www.w3.org/2000/svg">
<path d="M25.3925 2.85938C25.1112 1.73438 24.2206 0.84375 23.1425 0.5625C21.1268 0 13.1581 0 13.1581 0C13.1581 0 5.14246 0 3.12684 0.5625C2.04871 0.84375 1.15809 1.73438 0.87684 2.85938C0.31434 4.82812 0.31434 9.04688 0.31434 9.04688C0.31434 9.04688 0.31434 13.2188 0.87684 15.2344C1.15809 16.3594 2.04871 17.2031 3.12684 17.4844C5.14246 18 13.1581 18 13.1581 18C13.1581 18 21.1268 18 23.1425 17.4844C24.2206 17.2031 25.1112 16.3594 25.3925 15.2344C25.955 13.2188 25.955 9.04688 25.955 9.04688C25.955 9.04688 25.955 4.82812 25.3925 2.85938ZM10.5331 12.8438V5.25L17.1893 9.04688L10.5331 12.8438Z" fill="black"/>
</svg>
