<svg width="22" height="21" viewBox="0 0 22 21" fill="none" xmlns="http://www.w3.org/2000/svg">
<path d="M4.94239 21V6.98438H0.583016V21H4.94239ZM2.73927 5.10938C4.14552 5.10938 5.27052 3.9375 5.27052 2.53125C5.27052 1.17188 4.14552 0.046875 2.73927 0.046875C1.37989 0.046875 0.254891 1.17188 0.254891 2.53125C0.254891 3.9375 1.37989 5.10938 2.73927 5.10938ZM21.208 21H21.2549V13.3125C21.2549 9.5625 20.4111 6.65625 16.0049 6.65625C13.8955 6.65625 12.4893 7.82812 11.8799 8.90625H11.833V6.98438H7.66114V21H12.0205V14.0625C12.0205 12.2344 12.3486 10.5 14.5986 10.5C16.8486 10.5 16.8955 12.5625 16.8955 14.2031V21H21.208Z" fill="black"/>
</svg>
